<svg width="11" height="10" viewBox="0 0 11 10" fill="none" xmlns="http://www.w3.org/2000/svg">
<path d="M7.25 2.97658C6.8242 2.97526 6.40228 3.04998 6.0084 3.19648C5.61452 3.34298 5.2564 3.55838 4.95454 3.83035C4.65268 4.10233 4.41299 4.42553 4.2492 4.78148C4.08541 5.13743 4.00073 5.51914 4 5.90476V8.86312C4 8.98321 4.05268 9.09839 4.14645 9.18331C4.24021 9.26823 4.36739 9.31593 4.5 9.31593H5.66667C5.79928 9.31593 5.92645 9.26823 6.02022 9.18331C6.11399 9.09839 6.16667 8.98321 6.16667 8.86312V5.90476C6.16656 5.76761 6.19837 5.63197 6.26002 5.5067C6.32167 5.38143 6.41178 5.26933 6.52448 5.17771C6.63718 5.0861 6.76993 5.01702 6.91408 4.97498C7.05824 4.93294 7.21056 4.91888 7.36111 4.93373C7.63112 4.96453 7.87925 5.08399 8.05845 5.26947C8.23766 5.45494 8.33547 5.69353 8.33333 5.93998V8.86312C8.33333 8.98321 8.38601 9.09839 8.47978 9.18331C8.57355 9.26823 8.70073 9.31593 8.83333 9.31593H10C10.1326 9.31593 10.2598 9.26823 10.3536 9.18331C10.4473 9.09839 10.5 8.98321 10.5 8.86312V5.90476C10.4993 5.51914 10.4146 5.13743 10.2508 4.78148C10.087 4.42553 9.84732 4.10233 9.54546 3.83035C9.2436 3.55838 8.88548 3.34298 8.4916 3.19648C8.09772 3.04998 7.6758 2.97526 7.25 2.97658Z" fill="white"/>
<path d="M2.1 2.97656H0.9C0.679086 2.97656 0.5 3.19489 0.5 3.46421V8.82829C0.5 9.09761 0.679086 9.31593 0.9 9.31593H2.1C2.32091 9.31593 2.5 9.09761 2.5 8.82829V3.46421C2.5 3.19489 2.32091 2.97656 2.1 2.97656Z" fill="white"/>
<path d="M1.5 2.18421C2.05228 2.18421 2.5 1.82943 2.5 1.39179C2.5 0.954144 2.05228 0.599365 1.5 0.599365C0.947715 0.599365 0.5 0.954144 0.5 1.39179C0.5 1.82943 0.947715 2.18421 1.5 2.18421Z" fill="white"/>
</svg>
